<?xml version="1.0" encoding="utf-8"?>
<!-- Generator: Adobe Illustrator 25.4.1, SVG Export Plug-In . SVG Version: 6.00 Build 0)  -->
<svg version="1.1" id="Layer_1" xmlns="http://www.w3.org/2000/svg" xmlns:xlink="http://www.w3.org/1999/xlink" x="0px" y="0px"
	 viewBox="0 0 152 165" style="enable-background:new 0 0 152 165;" xml:space="preserve">
<style type="text/css">
	.st0{fill:#F9861A;}
</style>
<g>
	<g>
		<g>
			<g>
				<path class="st0" d="M19.5,123.1l-0.2,0.3h-0.1c-0.1,0.2-0.2,0.4-0.2,0.6c0,0.3,0,0.5,0,0.6c-0.2,0.4-0.3,0.9-0.6,1.7
					c-0.3,0.5-0.6,0.9-1.1,1.2h-0.2l-0.3,0.7l-0.5,0.2l-0.2,0.3l-0.2,0.1c0,0.1-0.1,0.2-0.3,0.4h-0.2v0.1l-0.7,0.1
					c-0.3,0.5-0.6,0.7-1,0.9h-0.4l-0.6,0.4H12c-0.2,0.1-0.5,0.2-0.9,0.3s-0.7,0.2-0.7,0.2l-0.3-0.1c-0.2,0.1-0.5,0.1-1,0.1l-0.5-0.3
					c0-0.1-0.1-0.3-0.2-0.6c-0.3-0.3-0.6-0.4-1-0.3l-0.8,0.4H5.8c-0.1,0.1-0.3,0.3-0.6,0.5c-0.3,0.2-0.5,0.4-0.6,0.4
					c-0.3,0-0.7,0-1.1-0.2c-0.6,0.1-0.8,0.1-0.7,0.1c-0.1,0-0.3,0-0.6-0.1S1.7,131,1.6,131s-0.1,0-0.2,0L1,130.5
					c-0.1-0.3-0.2-0.6-0.2-1c0-0.5-0.1-0.8-0.1-1c0.1-0.3,0.4-0.8,0.6-1.5c0.2-0.2,0.4-0.4,0.4-0.5l0.3-0.1c0.4,0,0.7,0.1,0.9,0.2
					c0.3,0.3,0.5,0.7,0.5,1.1v0.5l-0.3,0.2H2.7L2.4,128L2,127.9c-0.3,0.3-0.6,0.6-0.7,0.9c0.1,0.5,0.2,0.8,0.1,1.1l0.2,0.3l0.7-0.1
					l0.4,0.3c0.3-0.1,0.7-0.2,1.2-0.3c0.2-0.2,0.4-0.4,0.7-0.5v-0.2l0.7-0.1l0.1-0.4l0.3-0.2l0.1-0.2c0-0.2,0-0.4,0.1-0.7
					c0.1-0.4,0.1-0.6,0.1-0.7l0.3-0.2l-0.2-0.4l0.2-0.6l0.2-0.1l0.2-0.2V125l0.3-0.4c0-0.1,0-0.4,0.1-0.8s0.2-0.6,0.2-0.7l-0.1-0.2
					l0.3-0.6c0-0.6-0.1-0.9-0.1-0.9c0-0.4,0.1-0.9,0.3-1.6l0.5-0.3c0.1-0.2,0.2-0.5,0.3-0.7h0.1l0.2-0.4h0.1l0.2-0.1l0.2-0.7
					l-0.2-0.9l-0.2-0.2v-0.1c-0.3,0.1-0.7,0.1-1.1,0.1l-0.7,0.3c-0.4-0.1-0.8,0-1.4,0.3l-0.1,0.2l-0.7,0.2c-0.5,0.5-0.8,0.9-0.9,1.2
					c0.2,0.2,0.4,0.5,0.7,0.9v0.2c0,0.3-0.1,0.6-0.3,1L4,121.1l0-0.4l-0.2-0.2l-0.3-0.1c-0.3-0.3-0.5-0.7-0.6-1.1
					c0-0.1,0.1-0.4,0.1-0.8c0-0.3,0.1-0.6,0.3-0.7v-0.3l0.5-0.5l0.5-0.2l0.1-0.1c0.6-0.3,1.1-0.3,1.6-0.3l0.3-0.4
					c0.6-0.2,1.3-0.4,1.9-0.4c0.3,0,0.6,0,1.1-0.1l0.1-0.3l0.3-0.3v-0.2l0.7-0.3c0.2-0.2,0.4-0.4,0.5-0.6l0.2-0.1v-0.1
					c0.5-0.4,0.9-0.6,1.2-0.6l0.4-0.3l0.5-0.1l0.4,0.2H14c0.3-0.1,0.6-0.2,1-0.3l0.5,0.1l0.1,0.2h0.1v0.1l0.4,0.1
					c0.2-0.1,0.5-0.3,0.9-0.5h0.2l0.6-0.4v-0.2c0,0,0-0.2-0.1-0.6c0.4-0.3,0.9-0.5,1.6-0.5l0.2,0.2l0.2,0.6c0,0.1-0.2,0.3-0.5,0.6
					v0.2l-0.3,0.4c-0.7,0.5-1.4,0.7-1.9,0.7c-0.1,0-0.3-0.1-0.8-0.2c-0.6,0.3-1.1,0.5-1.6,0.5l-0.5-0.2h-0.2l-0.5-0.3l-0.2,0.1
					l-0.1,0.1l-0.4,0.1l-0.4,0.3l-0.1,0.4l-0.2,0.1l-0.1,0.6c0.7,0,1.2,0,1.6,0l0.5,0.3c0.1,0,0.3,0,0.6,0.1
					c0.2,0.1,0.4,0.1,0.6,0.1l0.4,0.2l0.1,0.4l0.5,0.3l0.7,0.1v0.1c0.1,0.1,0.5,0.3,1.1,0.5l0.5,0.4c0.1,0.5,0.3,0.9,0.6,1.2
					c0,0.3,0,0.6,0,0.8l-0.1,0.4c0.1,0.1,0.2,0.4,0.3,0.7c0.1,0.2,0.1,0.5,0.2,0.8c0,0.5,0.1,0.8,0.1,0.9
					C19.5,122.5,19.5,122.8,19.5,123.1z M17,121.8c-0.1-0.5-0.1-0.7-0.1-0.6s0-0.1,0.1-0.6c-0.1-0.7-0.4-1.2-0.7-1.7v-0.2l0.1-0.7
					l-0.1-0.4c-0.2-0.1-0.5-0.3-0.9-0.4c-0.3-0.1-0.6-0.2-0.9-0.2l-0.7-0.6c-0.8-0.1-1.2-0.2-1.1-0.2c-0.4,0.1-0.7,0.2-1,0.3
					c-0.2,0.3-0.4,0.6-0.8,1.1v0.1l-0.4,0.8v0.4l0.1,0.2l-0.1,0.6l-0.2,0.2l-0.3,0.7l0.1,0.8l-0.4,0.3l-0.2,0.5
					c0.1,0.1,0.1,0.5,0.1,1.3c0,0.1,0,0.2-0.1,0.5c-0.1,0.2-0.1,0.4-0.1,0.5l0,0.5v0.2L9,125.6l0.1,0.1L9,125.8v0.9l-0.4,0.9
					l-0.3,0.2v0.3c-0.2,0.4-0.4,0.8-0.4,1.2l0.5,0.4h0.4c0.2,0.1,0.4,0.2,0.4,0.4l0.4,0.1c0.3-0.1,0.7-0.3,1.2-0.5l0.1-0.2l0.9-0.1
					c0.2-0.1,0.4-0.2,0.5-0.3c0.3-0.1,0.6-0.1,0.9-0.1l0.4-0.2c0.2-0.3,0.4-0.5,0.7-0.6c0.4-0.4,0.6-0.8,0.7-1.2
					c0.2-0.2,0.6-0.5,0.9-0.9c0-0.1,0-0.2,0-0.3c0,0,0-0.2,0.1-0.5l0.1-0.1c0-0.1,0.1-0.5,0.1-1.3c0-0.3,0.2-0.8,0.5-1.4
					c0-0.1,0-0.3,0.1-0.7L17,121.8L17,121.8L17,121.8z"/>
				<path class="st0" d="M26.9,125.7L26.9,125.7l-0.1,0.4l0.1,0.2l-0.1,0.3v0.4c-0.2,0.4-0.4,0.7-0.6,0.9c0,0-0.1,0-0.2,0
					s-0.2,0-0.2,0s-0.2,0-0.5-0.1l-0.2-0.1c-0.2,0-0.6,0-1.3-0.2c-0.7-0.1-1.1-0.2-1.4-0.3l-0.3,0.1c0,0-0.1,0.3-0.2,0.6
					c-0.1,0.4-0.2,0.6-0.2,0.6c0,0.1,0,0.2,0,0.3s0,0.2,0,0.3l0.4,0.7c0.2,0.1,0.4,0.1,0.4,0.1s0,0,0.1,0c0,0,0,0,0.1,0l0.7,0.1
					c0.2,0,0.4-0.1,0.6-0.3c0.3-0.2,0.5-0.3,0.6-0.3h0.2c0.2-0.1,0.3-0.3,0.4-0.5l0.5-0.1l0.1,0.3c0,0.2-0.5,0.7-1.3,1.5
					c-0.3,0.1-0.6,0.2-1.1,0.3c-0.5,0-0.9,0.1-1.1,0.2l-0.5-0.1l-0.1-0.1l-0.4-0.1c-0.4-0.3-0.8-0.7-1.2-1.4c0-0.2-0.1-0.4-0.1-0.7
					c0-0.1,0.1-0.4,0.2-0.9l0.1-0.1v-0.1l0.2-0.2l0.1-0.4c0.1-0.1,0.2-0.3,0.3-0.5v-0.8l0.2-0.1l0.2-0.6c0.6-0.7,1.2-1.1,1.9-1.3
					c0,0,0.1,0,0.2,0s0.1,0,0.2,0c0.2-0.1,0.3-0.1,0.3-0.1l0.3,0.1c0.1,0,0.2-0.1,0.4-0.1c0.1,0,0.3,0.1,0.5,0.1
					c0.2,0.1,0.4,0.1,0.5,0.1l0.2,0.3l0.2,0.1l0.1,0.2l0.3,0.1l0.2,0.2c0,0.1,0.1,0.2,0.1,0.4S26.9,125.6,26.9,125.7z M25.6,126
					L25.6,126c-0.1-0.4-0.1-0.6-0.1-0.7c-0.1-0.2-0.4-0.5-0.9-0.9c-0.3,0-0.7,0.1-1.2,0.3l-0.1,0.2L23,125l-0.1,0.2l-0.1,0.1v0.2
					l-0.1,0.1c0,0.1-0.1,0.3-0.1,0.5h-0.1v0.2l0.1,0.3c0.5,0.3,1.4,0.4,2.7,0.5c0.1-0.2,0.2-0.4,0.3-0.5L25.6,126z"/>
				<path class="st0" d="M35.4,125.3l-0.1,0.2l-0.2,0.3h-0.4l-0.2-0.2l-0.1-0.4l0.1-0.5l-0.3-0.3c-0.1-0.1-0.4-0.1-0.9-0.1
					c-0.1,0-0.2,0-0.3,0c-0.2,0.1-0.3,0.2-0.4,0.3l-0.2,0.3c0.1,0.2,0.1,0.4,0.1,0.6l0.1,0.2c0.3,0.2,0.6,0.5,0.9,0.9
					c0.3,0.5,0.5,0.9,0.5,1.2l-0.1,0.3l-0.2,0.2v0.3c-0.2,0.1-0.3,0.4-0.4,0.7l-0.3,0.2l-0.1,0.2c-0.1,0.1-0.2,0.2-0.3,0.3h-0.3
					c-0.2,0.1-0.5,0.3-0.8,0.6c-0.3,0.1-0.6,0.2-0.8,0.4c-0.4,0-0.6,0-0.8,0c0.1,0-0.1,0-0.5-0.1c-0.3-0.1-0.5-0.1-0.6-0.1
					c-0.2,0-0.4-0.2-0.6-0.3c-0.2-0.2-0.4-0.5-0.6-0.7c-0.1-0.2-0.1-0.4-0.1-0.7c0.1-0.3,0.1-0.5,0.2-0.6l0.2-0.2l0.1-0.4h0.1v-0.4
					l0.4-0.3h0.3c0,0,0.2,0,0.4,0.1c0.4,0.2,0.6,0.5,0.8,1v0.3l0.1,0.3l-0.1,0.3l-0.3,0.4h-0.3l-0.2-0.4v-0.4l-0.2-0.2h-0.2
					l-0.2,0.1c-0.1,0.3-0.1,0.6-0.1,0.8l0.4,0.4c0.5,0.1,0.9,0.2,1.2,0.2c0.1,0,0.2,0,0.3,0c0.1,0,0.2,0,0.3,0
					c0.1-0.1,0.3-0.2,0.5-0.4s0.4-0.3,0.5-0.4c0,0,0.1-0.2,0.2-0.4v-0.3l0.2-0.2l-0.1-0.3l0.1-0.2l-0.2-0.1l-0.4-0.1
					c0-0.1-0.1-0.2-0.2-0.3s-0.2-0.3-0.2-0.3H31l-0.1-0.1c-0.1-0.4-0.2-0.6-0.3-0.9c0-0.2,0-0.3,0.1-0.5s0.3-0.4,0.4-0.6v-0.3
					l0.2-0.2l0.1-0.3h0.1l0.2-0.2c0.2,0,0.5-0.1,0.9-0.3c0.5-0.1,0.8-0.1,0.9-0.1c0.2,0,0.5,0,1,0.1c0.2,0.1,0.4,0.2,0.7,0.4
					c0.2,0.2,0.3,0.4,0.6,0.7L35.4,125.3z"/>
				<path class="st0" d="M40.2,128.9c0,0.1,0,0.3-0.2,0.6l-0.2,0.1l-0.1,0.2h-0.1l-0.2,0.2l-0.4,0.1c0,0.1-0.1,0.1-0.2,0.2
					s-0.1,0.2-0.2,0.2l-0.3,0.2l-0.4,0.1l-0.1,0.1l-0.4,0.1l-0.1,0.1l-0.4-0.2c-0.4,0-0.7,0-1.1-0.2v-0.1c-0.1-0.1-0.1-0.2-0.2-0.2
					l-0.2-0.1c-0.1-0.3-0.2-0.5-0.2-0.8l0.1-0.3c0.1-0.1,0.3-0.4,0.6-1c0.2-0.4,0.4-0.7,0.6-1.1c0-0.2,0.2-0.6,0.4-1.3v-0.2l0.1-0.1
					v-0.1h0.1l0.2-0.4v-0.4l-0.1-0.1c-0.2,0-0.4,0.1-0.6,0.3v0.1c-0.3,0.1-0.6,0.2-0.7,0.2l-0.2,0.2c-0.2,0-0.3,0.1-0.5,0.2H35
					l-0.2-0.1v-0.2V125c0.3-0.2,0.5-0.4,0.7-0.4c0.3,0,0.5-0.1,0.8-0.1c0.1,0,0.3-0.1,0.5-0.2c0.5-0.2,1.1-0.3,1.8-0.3
					c0,0,0.1,0,0.2,0c0.1,0,0.2,0,0.2,0c0.1,0.1,0.3,0.3,0.3,0.5h0.1c0.1,0.1,0.1,0.3,0.1,0.6c0,0,0,0.2-0.1,0.4
					c-0.1,0-0.2,0.2-0.4,0.4l-0.3,0.1l-0.1,0.3H39l-0.2,0.2c0,0.2,0,0.5-0.1,0.8h-0.1c0,0.2-0.1,0.4-0.2,0.5l-0.3,0.2
					c-0.2,0.6-0.3,0.9-0.3,1h-0.1c0,0.1-0.1,0.4-0.1,0.6v0.3c0.2,0,0.6-0.1,1-0.4c0.4-0.2,0.7-0.5,0.8-0.7l0.3-0.2h0.2L40.2,128.9z
					 M41.4,119.7l-0.2,0.1c0,0.4-0.2,0.6-0.4,0.7v0.2l-0.2,0.2l-0.1,0.3l-0.3,0.1c0,0.2-0.1,0.4-0.2,0.6c-0.2,0.1-0.3,0.2-0.5,0.4
					l-0.3,0.1L39,122c0-0.2,0-0.4,0-0.8c0.2-0.4,0.3-0.7,0.2-1.1c0.1-0.3,0.3-0.5,0.4-0.7l0.4-0.2l0.1-0.1c0.1-0.1,0.3-0.1,0.4-0.1
					H41c0.2,0.1,0.3,0.2,0.4,0.4V119.7z"/>
				<path class="st0" d="M49.4,124.6l-0.3,0.3c-0.1,0.3-0.1,0.6,0,0.8l-0.4,0.1l-0.2,0.3h-0.1v0.2c0,0.2-0.2,0.6-0.4,1.1v0.3
					l-0.1,0.2v0.2l-0.2,0.3c-0.1,0.2-0.2,0.6-0.3,1.1h-0.1l-0.1,0.2h-0.1v0.3c-0.1,0.2-0.1,0.3,0,0.4l-0.3,0.2c0,0.2,0,0.3,0,0.5
					s-0.1,0.4-0.2,0.7c-0.1,0.3-0.2,0.5-0.2,0.6l-0.3,0.2v0.2l0.1,0.1l-0.1,0.1v0.1l-0.2,0.1c-0.1,0.2-0.2,0.3-0.3,0.5
					s-0.3,0.4-0.6,0.7l-0.1,0.4L45,135v0.2l-0.1,0.2v0.1h-0.1c-0.2,0.3-0.5,0.5-0.8,0.6c-0.1,0.2-0.2,0.3-0.4,0.4h-0.1l-0.1,0.2
					c-0.4,0.2-0.7,0.2-0.9,0.3l-0.2,0.2h-0.1v0.1c-0.1,0.1-0.3,0.2-0.6,0.4c-1,0.2-1.8,0.2-2.5,0.2c0,0-0.1-0.1-0.2-0.2
					c-0.2,0-0.5,0-0.8-0.1c0,0-0.1-0.1-0.3-0.2h-0.6l-0.3-0.3l-0.1-0.2l-0.3-0.2l-0.2-0.2v-0.3l0.1-0.2v-0.2l0.3-0.5v-0.1
					c0,0,0.1-0.2,0.3-0.4l0.3-0.2l0.5-0.1l0.1-0.1h0.6c0.2,0,0.3,0.1,0.4,0.1v-0.1l0.5,0.1v0.2h0.1v0.1h0.1l0.1,0.1v0.2l-0.2,0.1
					v0.3l-0.1,0.1l-0.5,0.1c-0.2-0.1-0.3-0.2-0.4-0.3h-0.2l-0.1-0.2l-0.9,0.2l-0.1,0.1v0.1l-0.2,0.3c0.2,0.4,0.2,0.6,0.2,0.8h0.2
					v0.1l0.3,0.2c0.3-0.1,0.8,0,1.4,0.4c0.4-0.1,0.6-0.1,0.5-0.1s0.1,0,0.8,0.1c0.2-0.1,0.4-0.2,0.6-0.4v-0.1
					c0.3-0.1,0.6-0.2,0.8-0.5l0.3-0.1V136l0.3-0.1c0.1-0.1,0.4-0.7,0.8-1.6c0.4-0.8,0.7-1.2,0.9-1.4c0.1-0.1,0.1-0.3,0.2-0.6
					c0.2-0.3,0.3-0.5,0.4-0.8c0.2-0.5,0.2-0.7,0.3-0.8l0.1-0.1v-0.1l0.3-0.1c0.1-0.2,0.2-0.3,0.3-0.4l0.1-0.3
					c0.2-0.3,0.4-0.5,0.5-0.6v-0.5l0.1-0.2h0.1c0-0.2,0-0.6,0.2-1l-0.1-0.2c0.1-0.1,0.1-0.4,0.1-0.7c0-0.4,0.1-0.6,0.1-0.7l0.3-0.4
					c-0.2-0.2-0.3-0.3-0.4-0.4l-0.4-0.2c-0.5,0.1-0.8,0.3-1.1,0.6l-0.1,0.4c-0.2,0.1-0.4,0.3-0.6,0.5v0.3h-0.1l-0.1,0.4l-0.1,0.1
					c-0.1,0.2-0.1,0.3-0.2,0.4l-0.3,0.2l-0.1,0.3c0,0.1-0.1,0.3-0.1,0.4l-0.2,0.1l-0.1,0.6l0.1,0.1H44l0.5-0.3l0.2-0.3v-0.1l0.3-0.3
					l0.4-0.2v-0.1c0.4-0.1,0.7-0.1,0.7-0.1v0.3l-0.1,0.1v0.1l-0.1,0.1l-0.5,0.3l0.1,0.2l-0.1,0.1v0.1l-0.3,0.1
					c-0.6,0.6-1.2,0.8-1.8,0.8c-0.1,0-0.3,0-0.5,0l-0.3-0.3l-0.3-0.1l-0.4-0.3c0-0.1-0.1-0.4-0.1-0.8c0-0.3-0.1-0.6,0-0.9
					c0.1-0.2,0.2-0.4,0.3-0.7h0.2v-0.2h0.2l0.1-0.2l0.2-0.1c0.1-0.2,0.2-0.4,0.5-0.6v-0.2c0.1-0.1,0.3-0.4,0.8-0.7s0.8-0.5,1-0.6
					c0.5-0.2,1.1-0.3,1.8-0.3c0.1,0,0.2,0,0.4,0.1c0.2,0,0.3,0.1,0.4,0.1c0,0,0.1,0,0.2,0c0.1,0,0.2,0,0.3,0l0.3-0.3l0.4,0.1
					l0.6-0.1l0.1,0.1v0.6H49.4z"/>
				<path class="st0" d="M59.2,124.9L59.2,124.9l-0.1,0.5l-0.1,0.1l-0.2,0.4l0.1,0.2l-0.1,0.1c0,0.2-0.1,0.4-0.2,0.8v0.1
					c-0.2,0.2-0.3,0.5-0.6,1c-0.2,0.5-0.3,0.8-0.3,1l-0.2,0.3v0.3c0.4-0.3,0.6-0.5,0.8-0.8l0.3-0.1l0.4,0.1c0,0.2-0.2,0.4-0.4,0.7
					c-0.3,0.4-0.5,0.6-0.6,0.8l-0.2,0.1v0.1l-0.6,0.4c-0.3,0-0.6-0.2-0.9-0.4c0-0.1-0.1-0.2-0.3-0.3l0-0.3v-0.3l-0.1-0.2l0.1-0.2
					V129c0-0.3,0.2-0.8,0.5-1.4s0.5-1.2,0.5-1.6c0.2-0.3,0.3-0.6,0.3-1.1l-0.3-0.1v0.2v0.1l-0.5,0.4v0.1l-0.3,0.1v0.1
					c-0.3,0.1-0.4,0.2-0.5,0.3v0.2c-0.1,0.1-0.3,0.1-0.6,0.2v0.2h-0.2l-0.1,0.1h-0.1l-0.1,0.2v0.2l-0.3,0.1v0.2l-0.1,0.3v0.4
					c-0.1,0.2-0.2,0.4-0.3,0.7s-0.2,0.6-0.3,0.7c-0.2,0.1-0.3,0.3-0.5,0.5c-0.2,0.3-0.3,0.5-0.4,0.6c-0.3,0.1-0.7,0.2-1.3,0.3
					l-0.3-0.1l-0.4,0.1l-0.5-0.3l-0.2-0.5l0.1-0.4l0.3-0.1c0.2,0.1,0.5,0.2,0.6,0.3l0.4-0.1l0.3-0.2l0.1-0.5l0.1-0.1
					c0-0.3,0-0.5,0.1-0.8c0.1-0.2,0.3-0.6,0.5-1c0.1-0.4,0.3-1,0.5-1.7l-0.1-0.3l0.1-0.2l-0.2-0.2l-0.3,0.1v0.1l-0.4,0.1l-0.3,0.2
					c-0.4,0.1-0.7,0.1-0.9,0.2l-0.4-0.2l-0.1-0.3l0.1-0.2c0.8,0,1.7-0.3,2.7-0.8h0.2l0.6-0.4h0.3l0.3,0.1c0.4,0.4,0.5,0.7,0.4,0.9
					l-0.2,0.1v0.2l-0.2,0.3c0,0.1,0,0.2,0,0.3v0.2l0.2,0.1c0.3-0.1,0.6-0.3,1-0.5v-0.1h0.1l0.2-0.2h0.1l0.3-0.2l0.1-0.2l0.3-0.1
					v-0.1c0.2-0.1,0.5-0.2,0.6-0.3l0.1-0.1h0.2c0.2-0.1,0.4-0.2,0.5-0.3h0.3l0.1,0.2h0.1c0.1,0.2,0.2,0.4,0.3,0.7v0.2H59.2z"/>
				<path class="st0" d="M65.2,128.9c0,0.1,0,0.3-0.2,0.6l-0.2,0.1l-0.1,0.2h-0.1l-0.2,0.2l-0.4,0.1c0,0.1-0.1,0.1-0.2,0.2
					s-0.1,0.2-0.2,0.2l-0.3,0.2l-0.4,0.1l-0.1,0.1l-0.4,0.1l-0.1,0.1l-0.4-0.2c-0.4,0-0.7,0-1.1-0.2v-0.1c-0.1-0.1-0.1-0.2-0.2-0.2
					l-0.2-0.1c-0.1-0.3-0.2-0.5-0.2-0.8l0.1-0.3c0.1-0.1,0.3-0.4,0.6-1c0.2-0.4,0.4-0.7,0.6-1.1c0-0.2,0.2-0.6,0.4-1.3v-0.2l0.1-0.1
					v-0.1h0.1l0.2-0.4v-0.4l-0.1-0.1c-0.2,0-0.4,0.1-0.6,0.3v0.1c-0.3,0.1-0.6,0.2-0.7,0.2l-0.2,0.2c-0.2,0-0.3,0.1-0.5,0.2H60
					l-0.2-0.1v-0.2V125c0.3-0.2,0.5-0.4,0.7-0.4c0.3,0,0.5-0.1,0.8-0.1c0.1,0,0.3-0.1,0.5-0.2c0.5-0.2,1.1-0.3,1.8-0.3
					c0,0,0.1,0,0.2,0c0.1,0,0.2,0,0.2,0c0.1,0.1,0.3,0.3,0.3,0.5h0.1c0.1,0.1,0.1,0.3,0.1,0.6c0,0,0,0.2-0.1,0.4
					c-0.1,0-0.2,0.2-0.4,0.4l-0.3,0.1l-0.1,0.3H64l-0.2,0.2c0,0.2,0,0.5-0.1,0.8h-0.1c0,0.2-0.1,0.4-0.2,0.5l-0.3,0.2
					c-0.2,0.6-0.3,0.9-0.3,1h-0.1c0,0.1-0.1,0.4-0.1,0.6v0.3c0.2,0,0.6-0.1,1-0.4c0.4-0.2,0.7-0.5,0.8-0.7l0.3-0.2h0.2L65.2,128.9z
					 M66.4,119.7l-0.2,0.1c0,0.4-0.2,0.6-0.4,0.7v0.2l-0.2,0.2l-0.1,0.3l-0.3,0.1c0,0.2-0.1,0.4-0.2,0.6c-0.2,0.1-0.3,0.2-0.5,0.4
					l-0.3,0.1L64,122c0-0.2,0-0.4,0-0.8c0.2-0.4,0.3-0.7,0.2-1.1c0.1-0.3,0.3-0.5,0.4-0.7l0.4-0.2l0.1-0.1c0.1-0.1,0.3-0.1,0.4-0.1
					H66c0.2,0.1,0.3,0.2,0.4,0.4V119.7z"/>
				<path class="st0" d="M75.3,124.9L75.3,124.9l-0.1,0.5l-0.1,0.1l-0.2,0.4l0.1,0.2l-0.1,0.1c0,0.2-0.1,0.4-0.2,0.8v0.1
					c-0.2,0.2-0.3,0.5-0.6,1c-0.2,0.5-0.3,0.8-0.3,1l-0.2,0.3v0.3c0.4-0.3,0.6-0.5,0.8-0.8l0.3-0.1l0.4,0.1c0,0.2-0.2,0.4-0.4,0.7
					c-0.3,0.4-0.5,0.6-0.6,0.8l-0.2,0.1v0.1l-0.6,0.4c-0.3,0-0.6-0.2-0.9-0.4c0-0.1-0.1-0.2-0.3-0.3L72,130v-0.3l-0.1-0.2l0.1-0.2
					V129c0-0.3,0.2-0.8,0.5-1.4s0.5-1.2,0.5-1.6c0.2-0.3,0.3-0.6,0.3-1.1l-0.3-0.1l0,0.2v0.1l-0.5,0.4v0.1l-0.3,0.1v0.1
					c-0.3,0.1-0.4,0.2-0.5,0.3v0.2c-0.1,0.1-0.3,0.1-0.6,0.2v0.2h-0.2l-0.1,0.1h-0.1l-0.1,0.2v0.2l-0.3,0.1v0.2l-0.1,0.3v0.4
					c-0.1,0.2-0.2,0.4-0.3,0.7c-0.1,0.3-0.2,0.6-0.3,0.7c-0.2,0.1-0.3,0.3-0.5,0.5c-0.2,0.3-0.3,0.5-0.4,0.6
					c-0.3,0.1-0.7,0.2-1.3,0.3l-0.3-0.1l-0.4,0.1l-0.5-0.3L66,130l0.1-0.4l0.3-0.1c0.2,0.1,0.5,0.2,0.6,0.3l0.4-0.1l0.3-0.2l0.1-0.5
					l0.1-0.1c0-0.3,0-0.5,0.1-0.8c0.1-0.2,0.3-0.6,0.5-1c0.1-0.4,0.3-1,0.5-1.7l-0.1-0.3L69,125l-0.2-0.2l-0.3,0.1v0.1l-0.4,0.1
					l-0.3,0.2c-0.4,0.1-0.7,0.1-0.9,0.2l-0.4-0.2l-0.1-0.3l0.1-0.2c0.8,0,1.7-0.3,2.7-0.8h0.2l0.6-0.4h0.3l0.3,0.1
					c0.4,0.4,0.5,0.7,0.4,0.9l-0.2,0.1v0.2l-0.2,0.3c0,0.1,0,0.2,0,0.3v0.2l0.2,0.1c0.3-0.1,0.6-0.3,1-0.5v-0.1H72l0.2-0.2h0.1
					l0.3-0.2l0.1-0.2l0.4-0.1v-0.1c0.2-0.1,0.5-0.2,0.6-0.3l0.1-0.1H74c0.2-0.1,0.4-0.2,0.5-0.3h0.3l0.1,0.2H75
					c0.1,0.2,0.2,0.4,0.3,0.7V124.9z"/>
				<path class="st0" d="M84.7,124.6l-0.3,0.3c-0.1,0.3-0.1,0.6,0,0.8l-0.4,0.1l-0.2,0.3h-0.1v0.2c0,0.2-0.2,0.6-0.4,1.1v0.3
					l-0.1,0.2v0.2l-0.2,0.3c-0.1,0.2-0.2,0.6-0.3,1.1h-0.1l-0.1,0.2h-0.1v0.3c-0.1,0.2-0.1,0.3,0,0.4l-0.3,0.2c0,0.2,0,0.3,0,0.5
					s-0.1,0.4-0.2,0.7s-0.2,0.5-0.2,0.6l-0.3,0.2v0.2l0.1,0.1l-0.1,0.1v0.1l-0.2,0.1c-0.1,0.2-0.2,0.3-0.3,0.5
					c-0.1,0.2-0.3,0.4-0.6,0.7l-0.1,0.4L80,135v0.2l-0.1,0.2v0.1H80c-0.2,0.3-0.5,0.5-0.8,0.6c-0.1,0.2-0.2,0.3-0.4,0.4h-0.1
					l-0.1,0.2c-0.4,0.2-0.7,0.2-0.9,0.3l-0.2,0.2h-0.1v0.1c-0.1,0.1-0.3,0.2-0.6,0.4c-1,0.2-1.8,0.2-2.5,0.2c0,0-0.1-0.1-0.2-0.2
					c-0.2,0-0.5,0-0.8-0.1c0,0-0.1-0.1-0.3-0.2h-0.6l-0.3-0.3l-0.1-0.2l-0.3-0.2l-0.2-0.2v-0.3l0.1-0.2v-0.2l0.3-0.5v-0.1
					c0,0,0.1-0.2,0.3-0.4l0.3-0.2l0.5-0.1l0.1-0.1h0.6c0.2,0,0.3,0.1,0.4,0.1v-0.1l0.5,0.1v0.2h0.1v0.1h0.1l0.1,0.1v0.2l-0.2,0.1
					v0.3l-0.1,0.1l-0.5,0.1c-0.2-0.1-0.3-0.2-0.4-0.3h-0.2l-0.1-0.2l-0.9,0.2l-0.1,0.1v0.1l-0.2,0.3c0.2,0.4,0.2,0.6,0.2,0.8h0.2
					v0.1l0.3,0.2c0.3-0.1,0.7,0,1.4,0.4c0.4-0.1,0.6-0.1,0.5-0.1s0.1,0,0.8,0.1c0.2-0.1,0.4-0.2,0.6-0.4v-0.1
					c0.3-0.1,0.6-0.2,0.8-0.5l0.3-0.1V136l0.3-0.1c0.1-0.1,0.4-0.7,0.8-1.6c0.4-0.8,0.7-1.2,0.9-1.4c0.1-0.1,0.1-0.3,0.2-0.6
					c0.2-0.3,0.3-0.5,0.4-0.8c0.2-0.5,0.2-0.7,0.3-0.8l0.1-0.1v-0.1l0.3-0.1c0.1-0.2,0.2-0.3,0.3-0.4l0.1-0.3
					c0.2-0.3,0.4-0.5,0.5-0.6v-0.5l0.1-0.2h0.1c0-0.2,0-0.6,0.2-1l-0.1-0.2c0.1-0.1,0.1-0.4,0.1-0.7c0-0.4,0.1-0.6,0.1-0.7l0.3-0.4
					c-0.2-0.2-0.3-0.3-0.4-0.4l-0.4-0.2c-0.5,0.1-0.8,0.3-1.1,0.6l-0.1,0.4c-0.2,0.1-0.4,0.3-0.6,0.5v0.3h-0.1l-0.1,0.4l-0.1,0.1
					c-0.1,0.2-0.1,0.3-0.2,0.4l-0.3,0.2l-0.1,0.3c0,0.1-0.1,0.3-0.1,0.4l-0.2,0.1l-0.1,0.6l0.1,0.1H79l0.5-0.3l0.2-0.3v-0.1l0.3-0.3
					l0.4-0.2v-0.1c0.5-0.1,0.7-0.1,0.7-0.1v0.3l-0.1,0.1v0.1l-0.1,0.1l-0.5,0.3l0.1,0.2l-0.1,0.1v0.1l-0.3,0.1
					c-0.6,0.6-1.2,0.8-1.8,0.8c-0.1,0-0.3,0-0.5,0l-0.3-0.3l-0.3-0.1l-0.4-0.3c0-0.1-0.1-0.4-0.1-0.8c0-0.3-0.1-0.6,0-0.9
					c0.1-0.2,0.2-0.4,0.3-0.7h0.2v-0.2h0.2l0.1-0.2l0.2-0.1c0.1-0.2,0.2-0.4,0.5-0.6v-0.2c0.1-0.1,0.3-0.4,0.8-0.7
					c0.5-0.3,0.8-0.5,1-0.6c0.5-0.2,1.1-0.3,1.8-0.3c0.1,0,0.2,0,0.4,0.1c0.2,0,0.3,0.1,0.4,0.1c0,0,0.1,0,0.2,0s0.2,0,0.3,0
					l0.3-0.3l0.4,0.1l0.6-0.1l0.1,0.1v0.6H84.7z"/>
				<path class="st0" d="M124.1,111.9l-0.1,0.4v0.5l-0.4,0.5c-0.4,0.2-1,0.4-1.8,0.7l-0.1,0.2c-0.7,0-1,0.1-1.1,0.1
					c-1,0-1.9-0.2-3-0.7l-0.3,0.1c-0.1,0.2-0.3,0.3-0.5,0.5c-0.3,0.2-0.4,0.4-0.5,0.4c-0.2,0.4-0.5,1-1,1.8c0.3,0.5,0.5,0.9,0.4,1.3
					l-0.3,0.6h-0.2l-0.1,0.4l0.1,0.5l-0.2,0.3v0.5l-0.2,0.4l0.1,0.1c-0.3,1-0.5,1.6-0.6,1.8c-0.3,0.7-0.6,1.2-1,1.6l-0.1,0.4
					l0.2,0.4c0,0.2-0.1,0.4-0.2,0.8h-0.1c-0.2,0.3-0.3,0.6-0.4,1.1c-0.3,1.2-0.5,2-0.5,2.5c0,0.2,0,0.4,0,0.5l0.3,0.5l0.5,0.3
					l0.2,0.4c0.2,0.2,0.4,0.3,0.7,0.4l0.8-0.4l0.2-0.3l-0.1-0.5l0.1-0.4l0.3-0.2c0.3-0.5,0.6-0.8,0.8-0.9l0.1-0.4l0.3-0.4h0.2
					l0.3,0.3l0.2,0.5l-0.1,0.3c-0.4,0.4-0.7,0.7-1.1,1c-0.2,0.5-0.3,0.9-0.4,1.2c-0.2,0.2-0.3,0.3-0.5,0.5l-0.7,0.5h-0.5
					c0.1,0-0.3-0.1-1.2-0.3l-0.4-0.4c-0.3-0.1-0.6-0.1-0.8-0.1l-0.2-0.2l-0.8-0.4l-0.4-0.5c0-0.4,0-0.7-0.1-1c0-0.1-0.1-0.2-0.1-0.3
					V128c0-0.1,0-0.2,0.1-0.5c0.1-0.2,0.1-0.4,0.1-0.5l0.1-0.1c0-0.5,0-0.9,0.1-1.1c0,0,0.2-0.3,0.6-0.9c0.6-0.9,1-1.8,1.3-2.9
					c0,0,0,0,0.1-0.2v-0.4l-0.2-0.2h-0.3l-0.4,0.3c-0.1,0.2-0.3,0.6-0.7,1s-0.6,0.8-0.7,1.1c0,0.3,0,0.6-0.2,0.9l-0.4,0.4v0.5
					l-0.5,1l-0.3,0.3l-0.1,0.4h-0.1v0.2L108,128l-0.2,0.4l-0.5,0.3l-0.4,0.7l-0.7,0.3l-0.1,0.7c-0.2,0.2-0.4,0.3-0.6,0.4l-0.1,0.3
					l-1.2,0.1l-0.2-0.7l0.2-0.4h0.1v-0.6l0.2-0.2l-0.2-0.5c-0.2-0.2-0.4-0.4-0.6-0.6V128h-0.1c0-0.7,0.1-1.1,0.1-1.1l-0.1-0.8
					c0-0.2,0.1-0.5,0.2-0.9c0.1-0.2,0.2-0.5,0.4-0.9c0-0.2,0-0.6,0.1-1c-0.1-0.1-0.1-0.4-0.3-0.8c-0.1-0.5-0.2-0.8-0.2-0.9
					c0.1-0.6,0.3-1,0.5-1.2c0-0.3-0.1-0.8-0.2-1.3c-0.1,0.1-0.1,0.3-0.2,0.6l-0.3,0.1l-0.2,0.8l-0.4,0.3v0.1l-0.3,0.3v0.2l-0.1,0.1
					c0,0.2-0.2,0.4-0.4,0.6c-0.2,0.2-0.3,0.6-0.3,1l-0.4,0.8l-0.3,0.2c-0.2,0.5-0.5,1.2-1,2l-0.5,0.3c-0.2,0.3-0.4,0.7-0.7,1.2v0.1
					c-0.1,0.5-0.4,1-0.8,1.5c0,0.3-0.1,0.7-0.3,1.1l-0.7,0.3L97,131l-0.5,0.1l-0.2,0.2c-0.1,0-0.4,0-0.8,0.1c-0.3,0-0.6,0-0.8,0
					c-0.3,0-0.8-0.1-1.3-0.2c-0.7-0.2-1.1-0.3-1.3-0.3c-0.1-0.1-0.2-0.2-0.5-0.4l-0.4-0.8c-0.4-0.2-0.8-0.7-1.3-1.4l-0.2-1l0.2-0.7
					l0.5-0.6l0.5-0.1l0.4-0.3h0.3L92,126h0.1l0.1,0.3l0.2,0.2l0.2,0.9l-0.1,0.2l-0.3,0.2c-0.3-0.1-0.6-0.2-0.9-0.4l-0.5-0.1
					l-0.2,0.3c0.1,0.4,0.3,0.9,0.6,1.2l0.4,0.2c0.3,0.3,0.4,0.6,0.4,0.9l0.4,0.3h0.4l0.6,0.4c0.7,0.1,1,0.2,1,0.2
					c-0.2,0,0.4-0.1,1.8-0.2c0.2-0.1,0.5-0.2,0.8-0.5c0.6-0.6,1-1.2,1.2-1.8v-0.5c0.1-0.3,0.2-0.5,0.4-0.6c0.1-0.4,0.3-0.7,0.4-0.9
					l0.4-0.2c0.1-0.1,0.2-0.2,0.3-0.4c0.1-0.3,0.2-0.5,0.4-0.8c0.1-0.3,0.3-0.5,0.6-0.6l0.2-0.6l0.3-0.4c0-0.4,0.1-0.7,0.3-1.1h0.2
					c0.2-0.3,0.3-0.7,0.4-1l0.4-0.5c-0.1-0.2,0.2-1,0.6-2.2l-0.2-1l-0.3-0.4h-0.1l-0.1-0.3c-0.7-0.3-1.5-0.4-2.5-0.4
					c-0.3,0-0.7,0-1.3,0.1c-0.6,0-1,0.1-1.3,0.1c-0.1,0-0.3,0-0.5-0.1c-0.2,0-0.4-0.1-0.5-0.1h-0.9c-0.3,0.1-0.6,0.2-1,0.3
					c0,0-0.3,0.2-0.7,0.5v0.3c0.1,0.3,0.2,0.5,0.4,0.6l0.4,0.2l0.1,0.1v0.1h0.3l0.3,0.2h1.2c0.1,0,0.2,0,0.3-0.1
					c0.3-0.1,0.7-0.3,1.2-0.5c0.4-0.2,0.9-0.4,1.5-0.6l0.3,0.1l0.2,0.4l-0.1,0.5c-0.2,0.2-0.4,0.4-0.7,0.8c-0.5,0.1-0.9,0.2-1.2,0.5
					l-0.6-0.1c-0.2,0.1-0.3,0.1-0.4,0.1s-0.3,0-0.4,0c-0.2,0-0.3,0-0.4,0s-0.2,0-0.4,0.1l-0.8-0.2l-0.3-0.3h-0.2
					c-0.7-0.6-1.2-1-1.2-1.3h-0.1l-0.4-0.7V117c0.8-0.8,1.9-1.2,3.2-1.2c0.1,0,0.2,0,0.5,0.1s0.4,0.1,0.5,0.1c1.1,0.1,2.7,0.1,4.7,0
					c0.3,0.2,0.8,0.3,1.5,0.3l0.2,0.1h1c0.3-0.1,0.7-0.2,1.1-0.4l0.2-0.2h0.2c0.4,0.3,0.6,0.7,0.6,1.1c-0.2,0.7-0.3,1.2-0.3,1.3H106
					c-0.2,0.5-0.2,1-0.2,1.3l0.2,0.2l-0.2,0.4l0.1,0.4l-0.1,0.1c0.1,0.2-0.1,0.6-0.3,1.2h-0.1l-0.3,0.5v0.4l0.2,0.4l0.1,0.1
					c0.5,0.6,0.7,1.7,0.7,3.1c0,0-0.1,0.3-0.2,1l-0.3,0.3c-0.1,0.6-0.1,0.9-0.1,0.8c0,0.2,0,0.5,0.1,1l0.3,0.3l0.4-0.4l0.6-0.2
					c0.3-0.3,0.6-0.6,0.9-1c0-0.1,0.1-0.3,0.2-0.6c0.1-0.2,0.1-0.4,0.2-0.6l0.3-0.4c0.2-0.8,0.4-1.4,0.5-1.9c0.3-0.2,0.6-0.5,0.9-1
					c0.2-0.4,0.4-0.7,0.6-0.7c0.2-0.3,0.3-0.6,0.4-1l0.8-0.6l0.2-0.3h0.3l0.2-0.5l-0.1-0.1v-0.6l0.3-0.3c0-0.1,0-0.2,0.1-0.4
					l0.2-0.1l0.3-0.6l0.2-0.1h0.3l0.4-0.4v-0.2l0.1-0.1l0.1-0.6c0.1-0.1,0.2-0.2,0.3-0.5l0.2-0.1c0.4-0.3,0.8-1,1.3-2.1
					c0.1,0,0.2-0.2,0.4-0.4l-0.4-0.2l-1.4,0.1c-0.4-0.1-1-0.4-1.7-1h-0.7L111,112c0.2,0-0.3,0-1.5-0.1h-1.6l-0.9,0.4
					c0,0,0,0.1,0,0.2s0,0.2,0,0.2s0,0.3,0.1,0.7l0.3,0.3c0.2,0,0.7-0.3,1.6-0.7c0.2,0.1,0.5,0.3,0.8,0.4l0.1,0.4l-0.5,0.8
					c-0.1,0-0.2,0-0.4,0c-0.2,0-0.3,0-0.3,0c-0.2,0-0.4,0-0.8-0.1s-0.7-0.1-0.8-0.1l-0.6-0.5v-0.2l-0.3-0.3l0.1-0.2
					c-0.3-0.6-0.4-1-0.4-1.3c0-0.1,0-0.1,0-0.2h0.2l0.1-0.2l0.1-0.1c0.1,0,0.3,0,0.6-0.1c0.3-0.1,0.5-0.1,0.6-0.1l0.7-0.3h1
					c0.1,0,0.2,0,0.5,0.1c0.2,0.1,0.4,0.1,0.5,0.1l0.2-0.2c0.6,0,1.4,0.1,2.6,0.2l0.6,0.6l0.6,0.2v0.3c0.3,0.1,0.6,0.2,1.1,0.3
					c0.3,0,0.8,0,1.4,0.2l0.4-0.4l0.4-0.1c0.1-0.1,0.1-0.3,0.3-0.4v-0.2c0.4-0.3,0.7-0.5,0.9-0.7v-0.4h0.1l0.3-0.3l1-0.2l0.3-0.2
					h1.4c0,0,0.2,0,0.4,0.1c0.3,0.1,0.4,0.2,0.5,0.2h0.3l0.1-0.2l0.4,0.2l0.8,0.9L124.1,111.9z M122.7,112.3l-0.2-0.1l-0.1-0.7
					l-0.8-0.1v-0.3l-0.2-0.2l-1.2-0.1l-0.8,0.4l-0.1,0.3c-0.3,0.1-0.6,0.3-0.9,0.7v0.1l-0.4,0.3v0.2l0.2,0.2l0.6,0.3
					c0.6-0.1,1.1,0,1.6,0.2c0.8,0,1.5-0.2,2.1-0.6l-0.1-0.3l-0.2-0.1L122.7,112.3z"/>
				<path class="st0" d="M127.2,124.3l-0.1,0.2l-0.2,0.1v0.1l-0.7,0.1l-0.1,0.2v0.2l-0.1,0.1v0.3h0v0.1l-0.1,0.2v0.2l-0.2,0.1
					l0.1,0.2c-0.1,0.1-0.2,0.4-0.3,0.9l-0.4,0.4h0.1v0.1c-0.3,0.2-0.5,0.4-0.6,0.5v0.1v0.1l-0.1,0.8h-0.1v0.2l-0.2,0.3l0.1,0.2
					l0.3,0.1c0.2-0.2,0.5-0.4,1-0.6l0.1,0.3l-0.2,0.5c-0.4,0.2-0.6,0.5-0.9,0.9c-0.5,0.1-0.8,0.2-1,0.2v-0.1h-0.3
					c-0.2-0.2-0.3-0.3-0.5-0.5c0-0.2,0-0.4-0.1-0.8l-0.2-0.2h-0.1c-0.4,0.3-0.6,0.5-0.6,0.7l-0.4,0.1l-0.2,0.3l-0.5,0.2l-0.3-0.1
					h-0.3c-0.3-0.2-0.6-0.3-0.8-0.3l-0.3-0.3c-0.2-0.5-0.4-0.9-0.4-1.2c0-0.1,0-0.3,0.1-0.5h0.1c0-0.1,0.1-0.3,0.2-0.6l-0.1-0.2
					v-0.1c0-0.1,0-0.2,0.1-0.3s0.2-0.3,0.2-0.3c0.5-0.3,0.8-0.8,0.9-1.5c0.2-0.1,0.3-0.2,0.4-0.4c0.3-0.1,0.5-0.2,0.6-0.2h0.1
					c0.2-0.2,0.4-0.4,0.6-0.5l0.1-0.2l0.8-0.3l0.7,0.1l0.3,0.2h0.3l0.4-0.3h0.3l0.5,0.2l0.3-0.1l0.2,0.1l0.1,0.2l0.6-0.1l0.3-0.2
					l0.2,0.1l0.3-0.1C127.1,124,127.2,124.1,127.2,124.3z M124.5,124.6l-0.5-0.2c-0.3,0.1-0.6,0.1-0.9,0.1l-0.6,0.3l-0.3,0.3
					c0,0.1-0.2,0.5-0.4,1.2c-0.3,0.6-0.4,1-0.5,1v0.3l-0.2,0.2v0.2v0.2l-0.3,0.4v0.3l-0.1,0.1v0.2l-0.1,0.2v0.1l-0.3,0.1v0.3
					l0.1,0.1l0.4,0.2c0.2-0.1,0.5-0.2,0.9-0.5h0.1l0.3-0.2c0.1-0.1,0.2-0.3,0.4-0.5v-0.1l0.2-0.1c0.2-0.3,0.4-0.8,0.8-1.4v-0.1
					l0.3-0.3c0-0.3,0.1-0.6,0.3-0.9c0-0.1,0-0.2,0.1-0.5l0.2-0.1v-0.1v-0.1c0-0.1,0.1-0.3,0.3-0.5h0.1L124.5,124.6z"/>
				<path class="st0" d="M139.9,116.5c0,0.2-0.1,0.3-0.3,0.4v0.2c-0.3,0.2-0.6,0.4-0.8,0.5c-0.3,0-0.6,0-0.8,0.1l-0.3-0.1
					c-0.3,0-0.5,0.1-0.6,0.1c0,0-0.2,0-0.5-0.1l-0.3,0.1l-0.4-0.1l-0.2-0.2h-0.1l-0.3-0.2l-0.6,0.1l-0.1,0.1
					c-0.2,0.1-0.5,0.2-0.9,0.3l-0.2,0.2c-0.1,0.2-0.2,0.4-0.3,0.7l0.1,0.4c-0.1,0.6-0.2,0.9-0.2,0.8c-0.1,0.2-0.2,0.5-0.4,0.8
					c-0.1,0.3-0.1,0.5-0.2,0.8c-0.1,0.2-0.2,0.5-0.4,0.7v0.1l-0.1,0.2v0.2h0v0.1l0,0c0,0.2,0,0.5-0.1,0.9s-0.1,0.7-0.2,0.8h-0.1
					l0.1,0.3l0.5-0.2c0.1-0.2,0.3-0.4,0.7-0.6c0.3-0.2,0.6-0.4,0.8-0.4l0.3-0.3l0.1-0.3c0.4-0.1,0.7-0.1,0.8-0.1l0.1,0.2v0.1
					l0.1,0.2v0.1h0.1v0.1l0.2,0.1l0.1,0.2l-0.1,0.3l0.1,0.2l-0.1,0.6l-0.2,0.1v0.1c-0.2,0.2-0.4,0.4-0.4,0.6
					c-0.1,0.1-0.3,0.2-0.5,0.4l-0.3,0.1l-0.1,0.2c-0.2,0.1-0.4,0.2-0.5,0.3h-0.1l-0.1,0.1l-0.1-0.1v-0.6c0.3,0,0.7-0.1,1.1-0.4v-0.1
					c0.2-0.2,0.4-0.5,0.6-0.7V124h-0.1l0,0l-0.2-0.3c-0.1,0.1-0.3,0.2-0.6,0.3v0.2l-0.6,0.2c-0.1,0.1-0.3,0.2-0.5,0.4
					c-0.2,0.2-0.4,0.3-0.5,0.4l-0.1-0.1l-0.2,0.3l-0.4,0.1l-0.2,0.3c0,0,0,0.1,0,0.2l0.5,0.5h0.1l-0.2,0.1l0.3,0.2l0.1,0.2h0.2v0.3
					c0.1,0,0.4,0.4,0.8,1l0.4,0.2l-0.1,0.1l0.1,0.1v0.1l0.2,0.1l0.1,0.3v0.1l0.3,0.1v0.2v0.1h-0.1v0.1c0.1,0.1,0.2,0.2,0.4,0.4
					l0.3,0.1v0.3c0.2,0.2,0.5,0.3,0.9,0.2l0.3,0.1c0.2,0,0.5,0,0.6-0.1c0,0.1,0.1,0.1,0.2,0.2v0.2l-0.3,0.5c-0.2,0.1-0.3,0.1-0.5,0
					v0.1h0v0.1l-0.2,0.1h-0.2l-0.3,0.2H135c-0.2-0.2-0.4-0.4-0.7-0.4l-0.1-0.3c-0.1-0.2-0.3-0.4-0.6-0.7s-0.6-0.5-0.7-0.6
					c-0.1-0.2-0.2-0.4-0.4-0.7l-1-0.9h-0.1l-0.1-0.1h0.1l-0.3-0.2c-0.1-0.2-0.2-0.4-0.5-0.7l-0.1,0.1l-0.1-0.3
					c-0.1,0-0.1,0.1-0.2,0.3l0,0h-0.1l-0.1,0.4l0.1,0.2l-0.1,0.1c0,0,0,0.2-0.1,0.3s-0.3,0.4-0.6,0.8c-0.3,0.5-0.4,0.8-0.4,1
					l-0.4,0.3c-0.3,0-0.5,0-0.7,0.1c-0.2-0.1-0.5-0.2-1-0.1l-0.1,0.1l-0.1-0.3v-0.2l0.2-0.1l0.2-0.4c0-0.2,0-0.5,0.1-0.7h0.1
					l0.1-0.2h0.1c0-0.1,0.1-0.2,0.1-0.3v-0.1c0.1,0,0.3-0.1,0.4-0.2c0.1-0.4,0.1-0.7,0.1-0.9c0.2-0.2,0.4-0.5,0.6-1v-0.3l0.2-0.1
					V126h0.1l0.1-0.2c0.4-0.3,0.6-0.9,0.6-1.7c0.2-0.3,0.3-0.6,0.4-1l0.2-0.2l-0.1-0.2c0.1-0.3,0.2-0.5,0.3-0.6v-0.4
					c0.1-0.3,0.3-0.6,0.6-1l-0.1-0.4c0.1-0.2,0.2-0.5,0.4-0.9v-0.1c0-0.1,0.1-0.1,0.2-0.2V119l0.3-0.3v-0.3l0.3-0.3V118h0.1v-0.1
					c0.5-0.2,0.9-0.4,1.1-0.7c0.2,0,0.4-0.1,0.7-0.2s0.5-0.2,0.7-0.2h0.1c0.2,0,0.4,0,0.6-0.1v-0.1h0.8h0.1c0.1-0.1,0.2-0.1,0.2-0.2
					h0.8l0.5,0.3v0.1c0.2,0.1,0.5,0.2,0.9,0.2l0.2-0.1l0.2-0.9l0.6,0.2l0.1,0.2v0.1H139.9z"/>
				<path class="st0" d="M143.5,125.7L143.5,125.7l-0.1,0.4l0.1,0.2l-0.1,0.3v0.4c-0.2,0.4-0.4,0.7-0.6,0.9c0,0-0.1,0-0.2,0
					s-0.2,0-0.2,0s-0.2,0-0.5-0.1l-0.2-0.1c-0.2,0-0.6,0-1.3-0.2c-0.7-0.1-1.1-0.2-1.4-0.3l-0.3,0.1c0,0-0.1,0.3-0.2,0.6
					c-0.1,0.4-0.2,0.6-0.2,0.6c0,0.1,0,0.2,0,0.3s0,0.2,0,0.3l0.4,0.7c0.2,0.1,0.4,0.1,0.4,0.1s0,0,0.1,0c0,0,0,0,0.1,0l0.7,0.1
					c0.2,0,0.4-0.1,0.6-0.3c0.3-0.2,0.5-0.3,0.6-0.3h0.2c0.2-0.1,0.3-0.3,0.4-0.5l0.5-0.1l0.1,0.3c0,0.2-0.5,0.7-1.3,1.5
					c-0.3,0.1-0.6,0.2-1.1,0.3c-0.5,0-0.9,0.1-1.1,0.2l-0.5-0.1l-0.1-0.1l-0.4-0.1c-0.4-0.3-0.8-0.7-1.2-1.4c0-0.2-0.1-0.4-0.1-0.7
					c0-0.1,0.1-0.4,0.2-0.9l0.1-0.1v-0.1l0.2-0.2l0.1-0.4c0.1-0.1,0.2-0.3,0.3-0.5v-0.8l0.2-0.1l0.2-0.6c0.6-0.7,1.2-1.1,1.9-1.3
					c0,0,0.1,0,0.2,0s0.1,0,0.2,0c0.2-0.1,0.3-0.1,0.3-0.1l0.3,0.1c0.1,0,0.2-0.1,0.4-0.1c0.1,0,0.3,0.1,0.5,0.1
					c0.2,0.1,0.4,0.1,0.5,0.1l0.2,0.3l0.2,0.1l0.1,0.2l0.3,0.1l0.2,0.2c0,0.1,0.1,0.2,0.1,0.4S143.5,125.6,143.5,125.7z M142.1,126
					L142.1,126c-0.1-0.4-0.1-0.6-0.1-0.7c-0.1-0.2-0.4-0.5-0.9-0.9c-0.3,0-0.7,0.1-1.2,0.3l-0.1,0.2l-0.2,0.1l-0.1,0.2l-0.1,0.1v0.2
					l-0.1,0.1c0,0.1-0.1,0.3-0.1,0.5h-0.1v0.2l0.1,0.3c0.5,0.3,1.4,0.4,2.7,0.5c0.1-0.2,0.2-0.4,0.3-0.5L142.1,126z"/>
				<path class="st0" d="M151.5,125.6v0.6l-0.3,0.1c-0.1,0-0.3,0-0.7,0c-0.1,0-0.3-0.1-0.6-0.2c-0.2-0.3-0.3-0.4-0.4-0.6l-0.4-0.1
					c-0.2,0.2-0.4,0.4-0.5,0.6v0.3l-0.3,0.2l-0.3,0.4v0.3l-0.1,0.3l-0.2,0.1v0.3l-0.3,0.3c0,0.2-0.1,0.4-0.2,0.6l-0.3,0.1v0.3v0.2
					l-0.1,0.4l-0.2,0.2l-0.1,0.3l-0.3,0.4c-0.3,0.1-0.5,0.1-0.6,0.2c-0.2-0.1-0.4-0.2-0.7-0.2c-0.1,0-0.2,0-0.4,0.1
					s-0.4,0.1-0.4,0.1l-0.1-0.2v-0.3c0.1-0.1,0.3-0.3,0.6-0.5c0-0.3,0-0.5,0.1-0.7h0.1V129h0.1l0.1-0.2h0.1l0.2-0.4
					c0.1-0.1,0.3-0.3,0.5-0.5c0-0.2,0.1-0.4,0.3-0.7v-0.3c0.2-0.5,0.3-0.8,0.3-1.1l-0.2-0.3l-0.2-0.1c-0.1,0-0.2,0-0.5,0l-0.3,0.2
					l-0.3-0.1h-0.3l-0.1-0.1h-0.3v-0.2c0.1-0.2,0.3-0.3,0.5-0.3h0.2c0.2-0.2,0.4-0.3,0.7-0.4h0.3l0.1-0.1h0.4c0.1,0,0.3-0.1,0.6-0.3
					c0.2,0.1,0.4,0.2,0.6,0.3c0.1,0.2,0.2,0.4,0.3,0.5v0.1l0.2,0.4h0.1c0.1-0.3,0.3-0.5,0.6-0.8s0.6-0.5,0.8-0.6l0.3,0.1l0.2,0.2
					c0.2,0.1,0.4,0.2,0.5,0.4v0.2l0.3,0.3l0.3,0.1v0.1L151.5,125.6z"/>
			</g>
			<g>
				<path class="st0" d="M102.2,88.1L102.2,88.1L102.2,88.1z"/>
				<path class="st0" d="M62.2,99.5C62.2,99.8,62.2,99.8,62.2,99.5C62.2,99.3,62.2,99.2,62.2,99.5z"/>
				<path class="st0" d="M150.3,27.6c-0.5,0-1.3,0-2.3-0.2s-1.7-0.2-2.1-0.2c-0.4,0-0.9,0.1-1.6,0.2c-0.7,0.1-1.2,0.2-1.6,0.2
					c-0.2,0-0.4,0-0.8-0.1c-0.3,0-0.6-0.1-0.8-0.1c-1.2,0.7-3.2,1.5-6.2,2.4c-3.1,0.9-5.2,1.4-6.4,1.4c-4,2.2-7.1,3.8-9.1,4.8
					c-1.3,0.8-2.5,1.8-3.6,2.9c-0.6,0.7-1.3,1.5-1.9,2.2c-0.8,1-1.6,1.6-2.2,1.8c-1.2,0.2-2.4,0-3.7-0.6c-2,0.4-3.5,0.6-4.4,0.6
					c-3.7,0.5-6.5,1.1-8.3,1.8c-1.7,0.8-2.9,1.4-3.9,1.9l-1-0.4c-2.3,0.2-4,0.3-5.1,0.3c-0.8,0.2-1.4,0.4-1.8,0.5
					c-3.2,0.6-5.3,1.1-6.3,1.5c-2.1,0.7-3.9,1.9-5.5,3.6v0.4l-1.4,0.7l-0.8,2.9l-1.4,0.8h-0.7c-0.3,0.3-0.8,0.6-1.5,1.1
					s-1.2,0.8-1.5,1.1l-0.3,1.1l-3.4,3.3c-0.6,0.5-1.1,0.9-1.5,1.1L58.6,66l-0.7,0.4c-0.2,0.7-0.8,1.3-1.6,1.9
					c-0.7,0.5-1.4,0.9-2.1,1.4c0,0-0.4,0.4-1,1.1c-0.4,0.4-0.8,0.7-1.2,0.8c-0.5,0.7-1.9,1.9-4.2,3.6C45.7,76.8,44.4,78,44,79h-0.3
					c-0.2,0.9-0.8,2-2,3.3c-1.5,1.4-2.6,2.6-3.2,3.6c-0.8,0.7-1.4,1.2-1.9,1.5c0,0-0.7,0.7-1.9,2.1c-0.7,0.8-1.4,1.5-2.2,1.9v0.4
					l-2.2,1c-0.6,0.8-1,1.4-1.4,1.9l0.4-1.9c1.7-2.3,3.5-5.6,5.5-9.9h0.4l1.1-2.2v-1.4l0.3-0.4l-0.3-2.3c0.7-0.9,1.3-2.1,1.8-3.6
					h0.4v-0.4l0.7-1.5v-2.9l-0.7-1.4c0.8-1.6,1.5-2.9,2.2-4c-0.2-2.6,0.4-5.7,1.8-9.3c1.9-2.1,3.1-3.5,3.6-4.3c0-0.7-0.4-1.7-1.1-3
					c-0.7-1.3-1.1-2.4-1.1-3.2v-0.8c3-0.4,5.8-1,8.4-1.8l0.4-0.3c0.5,0.1,1.4,0,2.5-0.3c1.1-0.2,1.9-0.4,2.3-0.4
					c0.6,0,1.4,0.1,2.5,0.2l2.2,1.8c1.7-0.2,2.6-0.3,2.9-0.4c0.3,0.1,1.3,0.2,3,0.4l0.7-1.4l-1.4-3.3l-1.5-1.1
					c-0.2,0-0.8-0.1-1.8-0.3c-0.8-0.1-1.4-0.2-1.9-0.2c-1.4,0.3-2,0.5-1.9,0.5c-1.4,0.5-2.5,0.8-3.2,1.1c-0.5,0.1-1.9,0.3-4.3,0.5
					c-1.8,0.2-3.2,0.5-4.2,0.9c0,0-1,0.6-3,1.6c-1.1,0.6-2.2,0.9-3.3,1.1l-2.2-2.2c-1.5-0.7-2.7-0.9-3.7-0.7l-1-0.9
					c-3.6-0.2-5.9-0.8-6.9-1.7l-1.8,1c-2.4-0.4-3.8-0.6-4-0.6c-0.4,0-0.9,0.1-1.5,0.2C20.5,36,20,36,19.7,36c-1.8,0-3.7-0.4-5.5-1.2
					l-0.7,0.8c-2.7,0.1-5.3,0.6-7.7,1.4l-0.3,0.4c-2.2,0.9-3.7,1.9-4.6,3l-0.3,3.3l1.2,2.5C4,47.4,5.7,48,6.9,48h4l0.8-0.4
					c1.7,0.5,4.2,0.8,7.4,0.8c0.5,0,1.5-0.3,2.8-0.8l3.7,0.4l2.2-0.7V47c3.1-0.9,5.6-1.5,7.6-1.8c-0.4,1.2-0.7,2.3-1,3.2v3h0.3
					l0.7,1.8l-2.5,1.7L32,57.4l-1.7,1.7c-0.2,1-0.3,1.6-0.3,1.8c0,0.1,0.1,0.8,0.3,2.2L28.6,64l-1.8,2.1c-0.2,2.2-0.8,4.3-1.7,6.1
					l1.1,1.1l0.4,2.2c-0.1,1.4-0.6,3-1.5,4.9l-0.7,0.3c-0.1,2.3-0.2,4.1-0.4,5.5l-1,2.2c0.2,2.8,0.3,4.3,0.3,4.3
					c0,1.1-0.8,3.5-2.3,7.1v0.7c-0.3,1.1-0.9,2-1.8,2.6c-1.3,0-3,0.6-5.1,1.8v1.4c1.2,1.1,2.1,1.8,2.9,2.2v1.1l-1.1,1.8
					c0.1,0.1,0.5,0.2,1.1,0.4c2.5,0,4-0.1,4.4-0.4l0.8-3.2l1.5-1.1L24,106h0.4l0.4-1.1c0.5-0.4,1.1-1.1,1.8-2.1
					c0.7-1,1.3-1.7,1.8-2.1l1.1-2.6L31,97l2.3-0.5c1.5-2.1,2.9-4.1,4.3-5.9h0.8c1.9-1.9,3.1-3.3,3.6-4.5c1-0.9,1.9-1.7,2.9-2.6
					c1.1-1,1.9-2.1,2.3-3.3l1.5-0.7l-0.4-1.1l0.7-2l1.5-0.7h2.2c1.3-1.4,2.2-2.5,2.9-3.3l5.8-6.3c1-1.1,1.7-2,2.2-2.5
					c1.5-1.2,2.6-2.1,3.4-2.6l1.8-0.7c0.4-1.5,1.4-2.9,2.9-4.1v-0.4l0.8-0.3c1.2-1.8,2.7-2.9,4.3-3.3l0.4-0.7L78,51l4.1-0.6
					c0.7,0,1.3,0.2,1.9,0.3c-0.7,0.3-1.2,0.6-1.7,0.7c-1.6,1-3.6,2.5-6,4.4c-1.2,1.2-2.1,2.1-2.7,2.8l-1.4,3c-1,0.7-2,1.8-2.9,3.3
					c-0.1,0.4,0,0.8,0.1,1.4c-1.1,0.4-1.9,0.8-2.3,1.2l0.7,2.9l-0.3,1.8h0.3l1.5,2.2H74c1.1-0.5,2.2-1,3.2-1.5h0.4
					c1.5-0.4,2.7-0.9,3.8-1.4c0.2,0,0.4-0.1,0.6-0.1v-0.3c0.2-0.1,0.5-0.3,0.7-0.4c1-0.2,1.8-0.5,2.3-1.1l0.3-0.5
					c1.4-0.3,2.6-0.9,3.7-1.8l1.3-2.4l0.2-2.1l0.1-0.1l0.2-1.1l0.5-0.8l0.1-0.8l0.3-0.4l0.4-2.5l1.4-2.3l1.9-1.1l0.3-0.7l-0.3-0.7
					v-1.9l-1.6-1.9c3.4-1.4,6-2.4,7.7-3.2c1.3,0.1,3.7-0.1,7-0.7h0.3V46c-0.9,1-1.6,2.2-2.2,3.7l-1.1,0.7v1.1l-1.8,1.8l0.4,2.2
					l-0.4,0.7l-1.8,1.1l0.3,2.1l-1.6,2.4l0.7,0.7l-1.5,2.6l0.6,0.9l-0.9,3l-1.9,1.8l-1.1,3.3h-0.3c0.1,1,0,2.1-0.4,3.3h-0.4
					c0.1,1.6,0,3.1-0.3,4.6l-1.4,1.2c-0.2,2.3-0.6,4.2-1,5.7l0.4,1.5l-2,0.6c-0.8,2.7-1.4,5-1.8,6.7c-2.5,3.1-4.2,5.6-4.9,7.8
					l-1.7,1.7l-1.8,0.8l-0.7-0.4l-2.2,1.5l-2.9,0.7l-2.9-0.7c-0.7-1.3-2.5-2.6-5.6-4.1c-0.7-2.2-1.1-3.4-1.1-3.7v-4l0.7-1.1l2,0.4
					l2.2,2.9h1.4l0.7-1.1l0.4-3.7l0.7-0.7l-0.3-1.4L71.4,90c-1.2-0.4-2.2-0.8-3.2-1.1h-1.6v0.7L65.2,90l-0.8,0.7v1.9
					c-0.7,1.4-1.3,2.5-1.8,3.2c-0.2,2.1-0.3,3.3-0.4,3.8c0.1,0.5,0.2,2,0.4,4.4c0.9,1,2.1,2.6,3.6,4.7c2.3,1,3.7,1.8,4.2,2.5
					l1.8,0.4l0.3,0.7c1.4,0.3,2.4,0.5,3,0.4l1.9,1.3c1.3-0.5,2.3-0.8,3-0.9l1.5,0.3c1.5-0.3,2.6-0.6,3.4-0.7l2.5-1.5v-0.7l2.6-0.7
					l0.8-1.8c2-1.5,3.8-2.8,5.3-3.7v-2.4c1.7-3.7,2.8-6.5,3.4-8.4l1.8-2c0.2-2.3,0.4-3.5,0.4-3.4c0-0.3-0.1-0.9-0.3-2l1-4.1l1.4-1.9
					c0.1-2.6,1-5,2.8-7.1l0.5-3.5L108,69h0.3c0.9-0.7,1.5-1.4,1.7-2.3l-0.6-1l-0.4-0.3l0.4-2.6l1.6-0.7V61l-0.4-0.7l0.4-0.4v-0.3
					l1.2-1.6v-0.7l-0.4-0.8l0.4-0.3h0.4l0.7-1.1l0.1-3.6c1.3-1.7,2.2-3.3,2.8-4.8c1.9-0.5,3-0.7,3.3-0.7c3.9,0,6.5,0.5,8.1,1.4v0.8
					l1.5,0.9v2.1l1.2,2.1c-0.4,3.4-0.2,6.2,0.6,8.4c-0.2,1.1-0.6,2.1-1.1,3l-0.4,0.3v2.8l-2.5,0.9l-0.4,1.4l-2.2,1.1v0.4l-1.1,0.3
					v0.4l-4,1.1c-0.5,0.1-1.4-0.1-2.9-0.7l-1.4,0.7H113v1.1c1,1,1.6,2.3,1.9,4l1.8,0.7l1.4-0.7l0.4-1.5l1.8-0.7h1.5
					c0.4-0.3,1.5-0.8,3.4-1.5s3.3-1.4,4.2-2.1v-0.4c2.6-1.5,4.7-2.6,6.1-3.3c0.6-0.7,1.4-2,2.4-3.9c0.9-1.7,1.6-2.9,2.2-3.4
					c0.6-2,1-4.1,1.2-6.1c-1-3.2-1.9-5.7-2.7-7.2c-2.3-1.4-4.1-2.3-5.3-2.9c-0.5,0.1-1.7-0.2-3.5-0.8c-1.9-0.7-3.1-1-3.5-1.1h-8.5
					l1.1-1.1v-0.4c0.7-0.3,1.5-0.9,2.6-1.8c1-0.9,1.9-1.5,2.6-1.8l0.3-0.5h1.1c1.3-1.3,2.3-2.3,2.9-3c0.3,0.1,0.7,0.1,1.1,0.1
					c1,0,2.3-0.3,4-0.8c2.3-0.7,3.6-1.1,3.9-1.2c2.1,0.3,3.8,0.5,4.8,0.6c2.2-1.1,4.9-1.6,7.8-1.5l1.2-1.8L150.3,27.6z M33.3,43
					c-1.8,0.9-3.5,1.5-5.3,1.8c-0.8,0.1-2.6,0.3-5.4,0.5c-0.3,0-0.7,0.1-1.4,0.2c-0.7,0.1-1.2,0.2-1.5,0.2H16
					c-0.4,0-0.9-0.1-1.6-0.2c-0.7-0.1-1.2-0.2-1.6-0.2c-0.2,0-0.6,0.1-1.1,0.2c-0.5,0.1-0.9,0.2-1.1,0.2c-0.1,0-1-0.1-2.6-0.3
					l-0.7-0.8l-1.1-0.3l-1.3-2.2l2-1.8c2.4-0.9,4-1.6,4.8-2c1,0,2.6,0.2,4.8,0.6c2.1,0.4,3.7,0.6,4.7,0.6c0.5,0,1.2-0.1,2.1-0.2
					c0.9-0.1,1.6-0.2,2-0.2c0.1,0,0.7,0.1,1.9,0.3l0.7-0.3c1.6,0,3.7,0.5,6.2,1.4l1.1,1.1l0.3,1.5L33.3,43L33.3,43z M74.4,65v-1.8
					l1.4-1.1l0.4-0.7c1.3-0.7,2.5-2.2,3.6-4.5c2.6-1.4,4.4-2.9,5.1-4.4l1.7-0.5c0.1,0.1,0.3,0.2,0.4,0.3c0.1,1.6,0.2,3,0.3,4.2h-0.1
					v0.4c-1.4,0.8-2.2,1.4-2.5,1.8v1.2c0.5,0.3,1,0.9,1.4,1.8c0,0.1,0,0.2,0,0.3c-0.5,1.1-1,2.1-1.4,3l0,0l-0.6,1h-0.2
					c-0.1,0.3-0.3,0.6-0.7,0.9L81.9,68c-0.4,0.3-0.9,0.6-1.5,0.9l-2.1,0.6l-1.5,1.1l-2.2,0.3c-0.3-1.5-0.4-2.7-0.3-3.6l-0.8-0.4
					L74.4,65z"/>
			</g>
		</g>
	</g>
</g>
</svg>
